<?xml version="1.0" encoding="utf-8"?>
<!-- Generator: $$$/GeneralStr/196=Adobe Illustrator 27.6.0, SVG Export Plug-In . SVG Version: 6.00 Build 0)  -->
<svg version="1.1" id="Livello_1" xmlns="http://www.w3.org/2000/svg" xmlns:xlink="http://www.w3.org/1999/xlink" x="0px" y="0px"
	 viewBox="0 0 800 865" style="enable-background:new 0 0 800 865;" xml:space="preserve">
<style type="text/css">
	.st0{fill:#2CA366;}
	.st1{fill:#F8AD08;}
	.st2{fill:#EA5046;}
	.st3{fill:#6D4897;}
</style>
<g>
	<path class="st0" d="M279.4,0H129.7v127.5c0,64.8,54.5,121.2,120.8,121.2h28.8c66.6,0,120.6-52.8,120.6-117.9v-13
		C400,52.8,346,0,279.4,0"/>
	<polyline class="st0" points="129.7,248.7 129.7,248.7 400,432.5 400,248.7 	"/>
	<polygon class="st0" points="0,0 0,302.3 0,431.1 0,432.5 129.7,432.5 129.7,431.1 129.7,302.3 129.7,253.5 129.7,133.4 129.7,0 	
		"/>
	<path class="st1" d="M400,367.7c0,35.8,29,64.8,64.8,64.8c35.9,0,64.9-29,64.9-64.8c0-35.9-29-64.9-64.9-64.9
		C429,302.8,400,331.8,400,367.7"/>
	<polygon class="st1" points="400,0 400,302.7 464.8,302.7 529.7,302.7 529.7,242 529.7,0 	"/>
	<polygon class="st1" points="670.3,140.6 670.3,432.5 735.1,432.5 800,432.5 800,374 800,140.6 	"/>
	<polygon class="st1" points="529.7,0 529.7,237.9 670.3,432.5 670.3,194.6 	"/>
	<polygon class="st1" points="691.9,0 800,140.6 800,0 	"/>
	<path class="st2" d="M270.3,800.2c0,35.8,29,64.8,64.8,64.8c35.9,0,64.9-29,64.9-64.8c0-35.9-29-64.9-64.9-64.9
		C299.3,735.3,270.3,764.3,270.3,800.2"/>
	<polygon class="st3" points="596.5,670.4 596.5,670.4 400,670.4 400,800.1 670.3,800.1 670.3,670.4 	"/>
	<polygon class="st3" points="670.3,723.5 670.3,723.5 670.3,865 800,865 800,670.4 670.3,670.4 	"/>
	<path class="st3" d="M670.3,605.5c0,35.8,29,64.8,64.8,64.8c35.9,0,64.9-29,64.9-64.8c0-35.9-29-64.9-64.9-64.9
		C699.3,540.6,670.3,569.6,670.3,605.5"/>
	<polygon class="st2" points="270.3,735.2 0,735.2 0,800.1 0,865 54.3,865 270.3,865 	"/>
	<path class="st2" d="M200,573.1l200,0c0-77.6-64.8-140.6-144.8-140.6H144.8C64.8,432.5,0,495.4,0,573.1h0L200,573.1L200,573.1z"/>
	<polygon class="st3" points="400,670.4 670.3,432.5 670.3,605.5 594.6,670.4 	"/>
	<polygon class="st2" points="0,735.2 205.4,573.1 400,573.1 194.6,735.2 	"/>
</g>
</svg>
